<svg width="387" height="182" viewBox="0 0 387 182" fill="none" xmlns="http://www.w3.org/2000/svg">
<path d="M28.8469 85.056C14.5429 85.056 3.88688 74.688 3.88688 60.192C3.88688 46.656 13.5829 35.616 27.6949 35.616C41.9029 35.616 50.7349 45.888 50.7349 59.04V62.88H13.1029C14.1589 70.944 20.3029 76.608 28.7509 76.608C34.5109 76.608 39.6949 74.112 42.4789 68.928L49.7749 72.672C45.6469 80.736 38.0629 85.056 28.8469 85.056ZM13.4869 56.736H41.2309C40.8469 49.248 35.3749 44.16 27.5989 44.16C19.6309 44.16 14.4469 49.728 13.4869 56.736ZM120.45 35.616C134.658 35.616 142.338 46.176 142.338 59.232V84H132.834V60.768C132.834 52.224 128.61 44.736 119.778 44.736C111.234 44.736 106.914 51.936 106.914 60.576V84H97.4096V60.576C97.4096 51.936 93.0896 44.736 84.3536 44.736C75.5216 44.736 71.5856 52.224 71.5856 60.768V84H62.0816V59.328C62.0816 46.176 69.5696 35.616 83.6816 35.616C93.0896 35.616 99.9056 40.416 102.306 47.712C104.898 40.416 111.522 35.616 120.45 35.616ZM177.909 85.056C163.605 85.056 152.949 74.688 152.949 60.192C152.949 46.656 162.645 35.616 176.757 35.616C190.965 35.616 199.797 45.888 199.797 59.04V62.88H162.165C163.221 70.944 169.365 76.608 177.813 76.608C183.573 76.608 188.757 74.112 191.541 68.928L198.837 72.672C194.709 80.736 187.125 85.056 177.909 85.056ZM162.549 56.736H190.293C189.909 49.248 184.437 44.16 176.661 44.16C168.693 44.16 163.509 49.728 162.549 56.736ZM220.648 84H211.144V55.968C211.144 44.544 217.672 36 229.96 36C232.936 36 236.008 36.576 238.408 37.728V47.136C236.104 45.792 233.416 45.12 230.824 45.12C224.488 45.12 220.648 49.44 220.648 56.352V84ZM266.003 85.152C252.371 85.152 242.387 74.016 242.387 60.384C242.387 46.944 253.139 35.808 267.443 35.808C281.651 35.808 292.499 46.368 292.499 60.384V84H283.475V75.744C279.923 81.504 273.683 85.152 266.003 85.152ZM267.443 76.128C276.275 76.128 282.995 69.024 282.995 60.48C282.995 51.84 276.275 44.736 267.443 44.736C258.707 44.736 251.891 51.84 251.891 60.48C251.891 69.024 258.707 76.128 267.443 76.128ZM308.033 15.36H317.537V84H308.033V15.36ZM355.099 85.152C340.795 85.152 330.043 74.112 330.043 60.576C330.043 46.272 340.411 35.808 354.619 35.808C360.955 35.808 366.715 38.592 370.555 42.816L370.651 15.36H380.155V60.576C380.155 74.496 369.307 85.152 355.099 85.152ZM355.099 76.224C363.931 76.224 370.651 69.12 370.651 60.48C370.651 51.936 363.931 44.832 355.099 44.832C346.363 44.832 339.547 51.936 339.547 60.48C339.547 69.12 346.363 76.224 355.099 76.224Z" fill="white"/>
<path d="M24.0245 161.056C15.2885 161.056 8.5685 157.6 4.9205 150.592L12.2165 146.56C14.6165 151.264 18.4565 152.992 23.6405 152.992C29.0165 152.992 33.1445 150.784 33.1445 146.656C33.1445 136.768 6.1685 144.256 6.1685 126.304C6.1685 118.048 13.4645 112 23.7365 112C32.4725 112 38.4245 116.032 41.4005 121.504L34.1045 125.632C32.0885 121.504 28.2485 120.064 23.9285 120.064C19.5125 120.064 15.6725 122.368 15.6725 126.112C15.6725 135.712 42.6485 128.704 42.6485 146.464C42.6485 155.392 34.0085 161.056 24.0245 161.056ZM75.5052 161.248C63.7933 161.248 57.5533 153.856 57.5533 143.104V121.216H48.2413V112.96H57.5533V100.768H67.0573V112.96H85.1053V121.216H67.0573V142.816C67.0573 148.96 70.7053 152.608 76.3693 152.608C79.4413 152.608 82.8013 151.456 85.1053 149.824V158.56C82.7053 160.192 78.9613 161.248 75.5052 161.248ZM119.78 151.936C128.516 151.936 133.316 144.352 133.316 135.616V112.96H142.82V136.768C142.82 150.4 134.564 161.152 119.78 161.152C105.188 161.152 96.932 150.304 96.932 136.672V112.96H106.436V135.712C106.436 144.352 111.14 151.936 119.78 151.936ZM178.177 161.152C163.873 161.152 153.121 150.112 153.121 136.576C153.121 122.272 163.489 111.808 177.697 111.808C184.033 111.808 189.793 114.592 193.633 118.816L193.729 91.36H203.233V136.576C203.233 150.496 192.385 161.152 178.177 161.152ZM178.177 152.224C187.009 152.224 193.729 145.12 193.729 136.48C193.729 127.936 187.009 120.832 178.177 120.832C169.441 120.832 162.625 127.936 162.625 136.48C162.625 145.12 169.441 152.224 178.177 152.224ZM223.471 103.648C220.015 103.648 217.231 100.864 217.231 97.408C217.231 93.952 220.015 91.072 223.471 91.072C226.927 91.072 229.615 93.952 229.615 97.408C229.615 100.864 226.927 103.648 223.471 103.648ZM218.767 112.96H228.271V160H218.767V112.96ZM265.93 161.152C251.722 161.152 240.778 150.016 240.778 136.384C240.778 122.848 251.818 111.808 265.93 111.808C280.138 111.808 290.89 122.944 290.89 136.384C290.89 150.016 280.042 161.152 265.93 161.152ZM265.93 152.128C274.666 152.128 281.386 145.024 281.386 136.48C281.386 127.84 274.666 120.736 265.93 120.736C257.098 120.736 250.282 127.84 250.282 136.48C250.282 145.024 257.098 152.128 265.93 152.128Z" fill="#30D158"/>
</svg>
